<?xml version="1.0" encoding="UTF-8"?>
<svg width="30px" height="30px" viewBox="0 0 30 30" version="1.1" xmlns="http://www.w3.org/2000/svg" xmlns:xlink="http://www.w3.org/1999/xlink">
    <title>651DACA9-89F7-4A59-A66E-ABE88CACE09E</title>
    <g id="Homepage" stroke="none" stroke-width="1" fill="none" fill-rule="evenodd">
        <g id="quicklinks---desktop" transform="translate(-1319.000000, -2041.000000)" fill="#A4152D">
            <g id="bloodbag" transform="translate(1319.000000, 2041.000000)">
                <g id="Group-6" transform="translate(6.000000, 0.000000)">
                    <path d="M8.77646489,0 C9.8390889,0 10.7037424,0.914027824 10.7037424,2.03806872 L10.7011672,2.14034419 L10.7011672,2.14034419 L10.6938503,2.24132938 L13.6029808,2.24132938 C15.7152088,2.24132938 17.4454225,4.00334307 17.5483444,6.21067981 L17.5531878,6.41888211 L17.5531878,22.6616279 C17.5531878,24.8955532 15.886981,26.7252212 13.799845,26.8340588 L13.6029808,26.8391806 L13.2220929,26.8391806 L13.2220929,27.9618883 C13.2220929,29.0859722 12.3579125,30 11.2952455,30 C10.2809226,30 9.4470211,29.1671771 9.37330759,28.1138043 L9.36801103,27.9618883 L9.36801103,26.8391806 L8.1852198,26.8391806 L8.1852198,27.9618883 C8.1852198,29.0859722 7.32056634,30 6.25794233,30 C5.24361942,30 4.40967875,29.1671771 4.33596167,28.1138043 L4.33066486,27.9618883 L4.33066486,26.8391806 L3.94977693,26.8391806 C1.83796597,26.8391806 0.107764901,25.0772074 0.0048434504,22.8698339 L0,22.6616279 L0,6.41888211 C0,4.1849985 1.6662068,2.35529137 3.75295066,2.24645135 L3.94977693,2.24132938 L6.85903648,2.24132938 C6.85275717,2.17440734 6.84918742,2.10671113 6.84918742,2.03806872 C6.84918742,0.914027824 7.71384088,0 8.77646489,0 Z M13.7052993,3.31031873 L3.84737244,3.31031873 C2.42555775,3.31031873 1.26329622,4.48429027 1.17915314,5.96558495 L1.17427544,6.13781812 L1.17427544,22.7253673 C1.17427544,24.2290202 2.28387717,25.4586826 3.68451533,25.5477061 L3.84737244,25.5528667 L4.86771857,25.5528667 C5.23689372,25.5528667 5.5417405,25.843031 5.58998458,26.219391 L5.59663555,26.3240185 L5.59663555,28.1382683 C5.59663555,28.4929207 5.8689687,28.7808231 6.20452512,28.7808231 C6.50953732,28.7808231 6.76197897,28.5428873 6.80535669,28.2331706 L6.8119416,28.1382683 L6.8119416,26.3240185 C6.8119416,25.9336722 7.08638518,25.6109791 7.44230232,25.5599076 L7.54124566,25.5528667 L10.0118562,25.5528667 C10.3810313,25.5528667 10.6858781,25.843031 10.7341222,26.219391 L10.7407731,26.3240185 L10.7407731,28.1382683 C10.7407731,28.4929207 11.0131063,28.7808231 11.3486197,28.7808231 C11.6536319,28.7808231 11.9060735,28.5428873 11.9494513,28.2331706 L11.9560362,28.1382683 L11.9560362,26.3240185 C11.9560362,25.9336722 12.2304798,25.6109791 12.58643,25.5599076 L12.6853832,25.5528667 L13.7052993,25.5528667 C15.1270726,25.5528667 16.2897713,24.3788951 16.3739468,22.8976005 L16.3788264,22.7253673 L16.3788264,6.13781812 C16.3788264,4.57633242 15.1817561,3.31031873 13.7052993,3.31031873 Z M8.77646489,1.40888968 C8.44809097,1.40888968 8.18152103,1.69055579 8.18152103,2.03806872 C8.18152103,2.10924866 8.19326249,2.17746098 8.21390683,2.24132938 L8.21390683,2.24132938 L9.33902295,2.24132938 C9.35966728,2.17746098 9.37140875,2.10924866 9.37140875,2.03806872 C9.37140875,1.69055579 9.10488181,1.40888968 8.77646489,1.40888968 Z" id="Combined-Shape-Copy-2"></path>
                    <path d="M13.0531592,5.16108314 C14.1577287,5.16108314 15.0531592,6.05651364 15.0531592,7.16108314 L15.0531592,22.0850547 C15.0531592,23.1896241 14.1577287,24.0850547 13.0531592,24.0850547 L4.58054157,24.0850547 C3.47597207,24.0850547 2.58054157,23.1896241 2.58054157,22.0850547 L2.58054157,7.16108314 C2.58054157,6.05651364 3.47597207,5.16108314 4.58054157,5.16108314 L13.0531592,5.16108314 Z" id="Combined-Shape-Copy-3"></path>
                </g>
            </g>
        </g>
    </g>
</svg>