<?xml version="1.0" encoding="UTF-8"?>
<svg width="30px" height="31px" viewBox="0 0 30 31" version="1.1" xmlns="http://www.w3.org/2000/svg" xmlns:xlink="http://www.w3.org/1999/xlink">
    <title>010E11D9-088D-4725-A64C-4040CEA8A798</title>
    <g id="Homepage" stroke="none" stroke-width="1" fill="none" fill-rule="evenodd">
        <g id="quicklinks---desktop" transform="translate(-1319.000000, -2040.000000)" fill="#A41D2F" fill-rule="nonzero">
            <g id="blooddrop" transform="translate(1319.000000, 2040.980557)">
                <path d="M15.961311,0.376356265 C15.8506967,0.142630104 15.6129278,-0.00460504404 15.3538998,0.000109976163 C15.0948719,0.00505567921 14.862784,0.161052734 14.7610018,0.398739671 C11.4106061,8.18070383 3.99561191,11.0345881 3.99561191,19.4022514 C3.99561191,25.169709 9.55966198,29.8478409 15.3443296,29.8478409 C21.1289973,29.8478409 26.6967866,25.169709 26.6967866,19.4022514 C26.6967866,11.2733444 19.7379848,8.34484881 15.961311,0.376356265 Z M15.3181547,24.2855645 C14.8795129,24.3058611 14.4514909,24.147127 14.1326412,23.845911 C13.8137916,23.544695 13.631594,23.1269569 13.6279997,22.6888815 C13.6310988,22.2535223 13.8143464,21.8387835 14.1343801,21.5428064 C14.4544137,21.2468294 14.8827952,21.0959146 15.3181547,21.1257736 C15.7535142,21.0959146 16.1818956,21.2468294 16.5019293,21.5428064 C16.8219629,21.8387835 17.0052106,22.2535223 17.0083097,22.6888815 C17.0036666,23.1266174 16.821146,23.5437292 16.5025364,23.8447186 C16.1839267,24.1457079 15.7565138,24.3047979 15.3181547,24.2855645 Z M16.6381209,19.879764 L13.9794921,19.879764 C13.9794921,17.4213199 16.7241243,16.8766571 16.7241243,15.3508549 C16.7241243,14.4890938 15.9762681,13.9444309 14.8245696,13.9444309 C13.8079416,13.9177282 12.8473503,14.4081463 12.27438,15.246399 L10.1467291,14.0003894 C11.0965065,12.5603903 12.7642258,11.6464012 15.1237121,11.6464012 C17.7636444,11.6464012 19.6108492,12.82153 19.6108492,14.8919951 C19.5921528,17.7011125 16.6381209,18.0182108 16.6381209,19.879764 Z" id="Shape"></path>
            </g>
        </g>
    </g>
</svg>