<?xml version="1.0" encoding="UTF-8"?>
<svg width="30px" height="30px" viewBox="0 0 30 30" version="1.1" xmlns="http://www.w3.org/2000/svg" xmlns:xlink="http://www.w3.org/1999/xlink">
    <title>89DA6D18-46C8-4033-89C1-6AC826A2B546</title>
    <g id="Homepage" stroke="none" stroke-width="1" fill="none" fill-rule="evenodd">
        <g id="quicklinks---desktop" transform="translate(-1319.000000, -2041.000000)" fill="#A41D2F" fill-rule="nonzero">
            <g id="glass" transform="translate(1319.000000, 2041.000000)">
                <path d="M23.4205173,0 L6.75658976,0 C6.30875612,0 5.95876848,0.525 6.00392817,1.125 L8.23180647,29.08875 C8.26191293,29.625 8.59308403,30 8.97694144,30 L21.5539165,30 C21.9302473,30 22.2651817,29.59875 22.3065781,29.07375 L24.1656522,1.125 C24.2070486,0.51375 23.8608243,0 23.4205173,0 Z M22.4157141,1.7025 L21.937774,8.8575 C20.1155561,9.42186795 18.1553804,9.35579068 16.3756048,8.67 C13.3649585,7.47375 10.3881819,8.4975 8.39362871,9.57375 L7.76891959,1.69875 L22.4157141,1.7025 Z" id="Shape"></path>
            </g>
        </g>
    </g>
</svg>