<?xml version="1.0" encoding="UTF-8"?>
<svg width="31px" height="31px" viewBox="0 0 31 31" version="1.1" xmlns="http://www.w3.org/2000/svg" xmlns:xlink="http://www.w3.org/1999/xlink">
    <title>9418B477-85C2-4A01-A23E-45A241825644</title>
    <g id="Homepage" stroke="none" stroke-width="1" fill="none" fill-rule="evenodd">
        <g id="quicklinks---desktop" transform="translate(-1319.000000, -2040.000000)" fill="#A41D2F" fill-rule="nonzero">
            <g id="medicine" transform="translate(1319.000000, 2040.991120)">
                <g id="Group-5" transform="translate(0.000000, -0.000000)">
                    <path d="M24.5833333,16.9028001 L24.5833333,29.7487957 C24.5827987,29.8205172 24.6138982,29.8889938 24.668695,29.936734 C24.7234918,29.9844742 24.7966793,30.0068548 24.8695628,29.9981591 C28.2850021,29.5477869 30.8333333,26.6999023 30.8333333,23.3333544 C30.8333333,19.9668065 28.2850021,17.1189219 24.8695628,16.6685496 C24.799298,16.6600694 24.7285836,16.6804743 24.6743146,16.7248891 C24.6200457,16.7693039 24.5870969,16.8337393 24.5833333,16.9028001 Z" id="Path"></path>
                    <path d="M23.75,16.9178718 C23.7505347,16.84615 23.7194351,16.7776733 23.6646383,16.7299329 C23.6098415,16.6821926 23.536654,16.6598118 23.4637705,16.6685075 C20.0483312,17.1188812 17.5,19.9667748 17.5,23.3333333 C17.5,26.6998919 20.0483312,29.5477854 23.4637705,29.9981591 C23.536654,30.0068549 23.6098415,29.9844741 23.6646383,29.9367338 C23.7194351,29.8889934 23.7505347,29.8205166 23.75,29.7487949 L23.75,16.9178718 Z" id="Path"></path>
                    <path d="M23.7426708,6.45312356 L23.7426708,6.3980946 C23.7426708,6.21466472 23.7129159,6.03123484 23.6868803,5.85147356 L23.6868803,5.75609002 C23.6645642,5.60200892 23.6310899,5.44792783 23.5938963,5.29751533 C22.8829344,2.1924926 20.0816729,-0.00939090232 16.8544133,3.01155591e-05 C14.8920016,0.0012244598 13.0223256,0.823961437 11.7105363,2.26358513 L1.73892813,13.2290233 C0.852283232,14.2060189 0.271026977,15.4150933 0.0652154509,16.7105224 L0.0652154509,16.7582142 C0.0652154509,16.7875629 0.0652154509,16.8132431 0.0652154509,16.8535977 C-0.215371372,18.8502085 0.418338232,20.8665323 1.79471855,22.3564941 C1.95269642,22.5294358 2.12032787,22.6935545 2.29683235,22.8480861 C2.64099784,23.1547481 3.01470822,23.4275194 3.4126408,23.6625148 C3.99881948,23.9967129 4.63170224,24.2439386 5.29091836,24.3962343 C5.81465356,24.5207429 6.35151114,24.5833333 6.8902438,24.5833333 C7.0167021,24.5833333 7.14068081,24.5833333 7.26217995,24.5833333 C7.99949237,24.5402664 8.72516133,24.381758 9.4119709,24.1137523 C10.4091843,23.7283403 11.3008964,23.1176873 12.015524,22.3308139 L21.9908515,11.3727129 C22.1173098,11.2333062 22.2437681,11.0792251 22.40742,10.8664464 L22.4632104,10.7894059 C22.58223,10.6279876 22.6900915,10.4592321 22.7905142,10.2941452 L22.8463046,10.1987617 C22.9467274,10.022669 23.0322727,9.86125071 23.1103793,9.69983242 L23.1326955,9.64847205 C23.2179244,9.46653877 23.2936506,9.28041938 23.3595765,9.09084522 L23.3967701,8.98812449 C23.4637187,8.79368882 23.5157897,8.62126473 23.5604221,8.43416625 L23.5790189,8.34978851 C23.6199318,8.17369582 23.6534061,7.98292875 23.6794416,7.81784186 L23.6794416,7.73713271 C23.7054771,7.56104003 23.7203546,7.37027296 23.7315127,7.16850009 L23.7315127,7.04743637 C23.7538288,6.81998332 23.7538288,6.63288484 23.7426708,6.45312356 Z M3.47215059,16.0685178 C3.22991543,16.3328328 2.81639754,16.3536478 2.54814113,16.115029 C2.27988473,15.8764102 2.25829675,15.4685609 2.4999026,15.2036861 C2.74150844,14.9388113 3.1549757,14.9170396 3.42379889,15.155037 C3.69151515,15.3947639 3.71310225,15.8025964 3.47215059,16.0685178 L3.47215059,16.0685178 Z M5.06403731,20.7386425 C4.81915773,20.9968624 4.40926427,21.0127833 4.14455663,20.7743566 C3.87984899,20.5359299 3.85879872,20.1318506 4.09733627,19.8679184 C4.33587381,19.6039862 4.74526294,19.5783841 5.01568561,19.8104873 C5.1497329,19.9255399 5.23060142,20.0893993 5.23971984,20.2644357 C5.24883825,20.439472 5.185423,20.6106441 5.06403731,20.7386425 L5.06403731,20.7386425 Z M6.60757233,17.1067309 C6.43067729,17.3013956 6.1522344,17.3716432 5.90230343,17.2846614 C5.65237246,17.1976796 5.48027761,16.9706343 5.46640383,16.7095777 C5.45253006,16.4485211 5.59961535,16.2049729 5.83895666,16.0926938 C6.07829797,15.9804148 6.36266097,16.0215631 6.55922063,16.1969187 C6.8245209,16.4362814 6.84604661,16.8413211 6.60757233,17.1067309 L6.60757233,17.1067309 Z M6.81213721,13.3647614 C6.56990206,13.6290764 6.15638416,13.6498913 5.88812776,13.4112726 C5.61987136,13.1726538 5.59828338,12.7648045 5.83988923,12.4999297 C6.08149507,12.2350549 6.49496233,12.2132832 6.76378551,12.4512806 C7.03150178,12.6910075 7.05308888,13.09884 6.81213721,13.3647614 L6.81213721,13.3647614 Z M8.83546987,21.6814721 C8.59323472,21.9457871 8.17971682,21.9666021 7.91146042,21.7279833 C7.64320402,21.4893645 7.62161604,21.0815152 7.86322188,20.8166404 C8.10482773,20.5517656 8.51829498,20.5299939 8.78711817,20.7679913 C8.9166158,20.8826395 8.99450479,21.0434264 9.00357739,21.2148298 C9.01264999,21.3862332 8.9521595,21.5541462 8.83546987,21.6814721 L8.83546987,21.6814721 Z M9.60165834,18.6622163 C9.35942319,18.9265313 8.94590529,18.9473462 8.67764889,18.7087275 C8.40939249,18.4701087 8.3878045,18.0622594 8.62941035,17.7973846 C8.8710162,17.5325098 9.28448345,17.5107381 9.55330664,17.7487355 C9.68280427,17.8633837 9.76069326,18.0241706 9.76976586,18.195574 C9.77883846,18.3669774 9.71834796,18.5348903 9.60165834,18.6622163 L9.60165834,18.6622163 Z M9.99591066,15.3164553 C9.75367551,15.5807703 9.34015761,15.6015853 9.07190121,15.3629665 C8.8036448,15.1243477 8.78205682,14.7164984 9.02366267,14.4516236 C9.26526852,14.1867488 9.67873577,14.1649771 9.94755896,14.4029745 C10.0770566,14.5176227 10.1549456,14.6784096 10.1640182,14.849813 C10.1730908,15.0212165 10.1126003,15.1891294 9.99591066,15.3164553 L9.99591066,15.3164553 Z M13.4883911,17.5176139 C13.246156,17.7819289 12.8326381,17.8027438 12.5643817,17.564125 C12.2961253,17.3255062 12.2745373,16.9176569 12.5161431,16.6527821 C12.757749,16.3879073 13.1712162,16.3661356 13.4400394,16.6041331 C13.5752444,16.7192699 13.6568761,16.883903 13.6660063,17.059858 C13.6751365,17.2358131 13.6109721,17.4078063 13.4883911,17.5359568 L13.4883911,17.5176139 Z M21.790006,6.97039582 L21.790006,7.05844216 C21.790006,7.20885466 21.7676898,7.34092418 21.7528124,7.4583193 L21.7528124,7.52435405 C21.7342156,7.64908637 21.7118994,7.77748729 21.6821445,7.89121381 L21.6821445,7.95357997 C21.6523896,8.07464369 21.6114766,8.2067132 21.5668443,8.34978851 L21.5110539,8.43783485 C21.4589828,8.58091016 21.4106311,8.70197388 21.3659988,8.80469461 L21.3362439,8.86339217 C21.2798764,8.98901407 21.2165517,9.11148535 21.1465564,9.23025193 L21.1093628,9.29628668 C21.038695,9.4173504 20.956869,9.53474553 20.875043,9.66314644 L20.8192526,9.73284979 C20.7113911,9.8759251 20.6221265,9.98598303 20.5328618,10.0997096 L15.8762212,15.2357462 C15.8203778,15.298125 15.7410839,15.3352423 15.6567789,15.3384669 C15.5725672,15.3441814 15.4895357,15.3164417 15.4261784,15.2614263 L8.53048223,9.1165254 C8.40710249,8.99358091 8.40710249,8.79556958 8.53048223,8.6726251 L13.1871228,3.53658849 C15.0134242,1.53310584 18.1404052,1.36887249 20.1720837,3.16972873 C20.9333714,3.84203637 21.4626303,4.73218987 21.6858639,5.71573545 C21.7118994,5.82579338 21.7379349,5.9431885 21.7565317,6.06058362 L21.7565317,6.11561258 C21.7565317,6.25135069 21.790006,6.38342021 21.7974447,6.51182112 L21.7974447,6.55951289 C21.8028371,6.69650249 21.8003536,6.83368345 21.790006,6.97039582 L21.790006,6.97039582 Z" id="Shape"></path>
                </g>
            </g>
        </g>
    </g>
</svg>