<?xml version="1.0" encoding="UTF-8"?>
<svg width="30px" height="30px" viewBox="0 0 30 30" version="1.1" xmlns="http://www.w3.org/2000/svg" xmlns:xlink="http://www.w3.org/1999/xlink">
    <title>EA6335FB-25CF-47FE-AB82-6E159B81107A</title>
    <g id="Homepage" stroke="none" stroke-width="1" fill="none" fill-rule="evenodd">
        <g id="quicklinks---desktop" transform="translate(-1319.000000, -2041.000000)" fill="#A4152D" fill-rule="nonzero">
            <g id="pointer" transform="translate(1319.000000, 2041.000000)">
                <g id="Icon-/-Map-marker-/-Clay" transform="translate(5.000000, 0.000000)">
                    <path d="M2.87625418,3.28086164 C4.83835987,1.09360961 7.2017699,0 9.96655518,0 C12.7313405,0 15.0947505,1.08118223 17.0568562,3.24357912 C19.0189619,5.40597601 20,8.0281536 20,11.1101906 C20,12.651209 19.654407,14.4283246 18.9632107,16.4415907 C18.2720144,18.4548568 17.4359023,20.3189641 16.4548495,22.0339685 C15.4737967,23.7489729 14.4927585,25.3645326 13.5117057,26.8806959 C12.0171294,28.960232 10.8354126,30 9.96655518,30 C9.09769779,30 7.94942578,28.985087 6.52173913,26.955261 C5.3846097,25.2402565 4.37012709,23.5749874 3.47826087,21.9594035 C2.58639465,20.3438196 1.78372709,18.5169944 1.07023411,16.4788732 C0.356741137,14.440752 0,12.651209 0,11.1101906 C0,8.0281536 0.958741806,5.4184034 2.87625418,3.28086164 Z M7.37279335,13.7247503 C8.10068109,14.4572734 8.9650348,14.8235294 9.96588043,14.8235294 C10.9667261,14.8235294 11.8310798,14.4450648 12.5589675,13.6881243 C13.2868552,12.9311838 13.6507937,12.0155437 13.6507937,10.9411765 C13.6507937,9.86680928 13.2868552,8.95116916 12.5589675,8.19422863 C11.8310798,7.43728811 10.9667261,7.05882353 9.96588043,7.05882353 C8.9650348,7.05882353 8.11205416,7.43728811 7.40691292,8.19422863 C6.70177168,8.95116916 6.34920635,9.86680928 6.34920635,10.9411765 C6.34920635,12.0155437 6.69039861,12.9433923 7.37279335,13.7247503 Z" id=""></path>
                </g>
            </g>
        </g>
    </g>
</svg>